HIERARCHY
ROOT Hips
{
    OFFSET   0.000000   0.000000   0.000000
    CHANNELS 6 Xposition Yposition Zposition Zrotation Xrotation Yrotation
    JOINT Chest
    {
        OFFSET   0.000000   8.007240   0.000000
        CHANNELS 3 Zrotation Xrotation Yrotation
        JOINT Chest2
        {
            OFFSET   0.000000  22.077100   0.000000
            CHANNELS 3 Zrotation Xrotation Yrotation
            JOINT Neck
            {
                OFFSET   0.000000  23.254800   0.000000
                CHANNELS 3 Zrotation Xrotation Yrotation
                JOINT Head
                {
                    OFFSET   0.000000  14.370000   1.956600
                    CHANNELS 3 Zrotation Xrotation Yrotation
                    End Site
                    {
                        OFFSET   0.000000  19.566000   0.000000
                    }
                }
            }
            JOINT LeftCollar
            {
                OFFSET   3.911900  19.017000  -0.467064
                CHANNELS 3 Zrotation Xrotation Yrotation
                JOINT LeftShoulder
                {
                    OFFSET  10.383700   0.000000   0.000000
                    CHANNELS 3 Zrotation Xrotation Yrotation
                    JOINT LeftElbow
                    {
                        OFFSET  26.662100   0.001476   0.000517
                        CHANNELS 3 Zrotation Xrotation Yrotation
                        JOINT LeftWrist
                        {
                            OFFSET  28.869000  -0.000025  -0.000106
                            CHANNELS 3 Zrotation Xrotation Yrotation
                            JOINT LeftFinger0
                            {
                                OFFSET   2.044660  -2.323460   3.252850
                                CHANNELS 3 Zrotation Xrotation Yrotation
                                JOINT LeftFinger01
                                {
                                    OFFSET   3.088130   0.000000   0.000000
                                    CHANNELS 3 Zrotation Xrotation Yrotation
                                    JOINT LeftFinger02
                                    {
                                        OFFSET   2.639460   0.000000   0.000000
                                        CHANNELS 3 Zrotation Xrotation Yrotation
                                        End Site
                                        {
                                            OFFSET   2.582190   0.000000   0.000000
                                        }
                                    }
                                }
                            }
                            JOINT LeftFinger1
                            {
                                OFFSET   8.364480   0.000000   3.252850
                                CHANNELS 3 Zrotation Xrotation Yrotation
                                JOINT LeftFinger11
                                {
                                    OFFSET   4.646930   0.000000   0.000000
                                    CHANNELS 3 Zrotation Xrotation Yrotation
                                    JOINT LeftFinger12
                                    {
                                        OFFSET   2.323460   0.000000   0.000000
                                        CHANNELS 3 Zrotation Xrotation Yrotation
                                        End Site
                                        {
                                            OFFSET   2.273050   0.000000   0.000000
                                        }
                                    }
                                }
                            }
                            JOINT LeftFinger2
                            {
                                OFFSET   8.364490   0.000015   1.078090
                                CHANNELS 3 Zrotation Xrotation Yrotation
                                JOINT LeftFinger21
                                {
                                    OFFSET   5.111620   0.000000   0.000000
                                    CHANNELS 3 Zrotation Xrotation Yrotation
                                    JOINT LeftFinger22
                                    {
                                        OFFSET   2.788160   0.000016   0.000000
                                        CHANNELS 3 Zrotation Xrotation Yrotation
                                        End Site
                                        {
                                            OFFSET   2.727660   0.000000   0.000000
                                        }
                                    }
                                }
                            }
                            JOINT LeftFinger3
                            {
                                OFFSET   7.899780   0.000017  -1.078090
                                CHANNELS 3 Zrotation Xrotation Yrotation
                                JOINT LeftFinger31
                                {
                                    OFFSET   4.646930   0.000000   0.000000
                                    CHANNELS 3 Zrotation Xrotation Yrotation
                                    JOINT LeftFinger32
                                    {
                                        OFFSET   2.323470   0.000000   0.000000
                                        CHANNELS 3 Zrotation Xrotation Yrotation
                                        End Site
                                        {
                                            OFFSET   2.273050   0.000000   0.000000
                                        }
                                    }
                                }
                            }
                            JOINT LeftFinger4
                            {
                                OFFSET   7.435090   0.000000  -3.252850
                                CHANNELS 3 Zrotation Xrotation Yrotation
                                JOINT LeftFinger41
                                {
                                    OFFSET   3.717550   0.000000   0.000000
                                    CHANNELS 3 Zrotation Xrotation Yrotation
                                    JOINT LeftFinger42
                                    {
                                        OFFSET   1.858770   0.000000   0.000000
                                        CHANNELS 3 Zrotation Xrotation Yrotation
                                        End Site
                                        {
                                            OFFSET   1.818440   0.000000   0.000000
                                        }
                                    }
                                }
                            }
                        }
                    }
                }
            }
            JOINT RightCollar
            {
                OFFSET  -3.911900  19.017000  -0.467063
                CHANNELS 3 Zrotation Xrotation Yrotation
                JOINT RightShoulder
                {
                    OFFSET -10.383700   0.000019   0.000000
                    CHANNELS 3 Zrotation Xrotation Yrotation
                    JOINT RightElbow
                    {
                        OFFSET -26.662100   0.001175   0.000102
                        CHANNELS 3 Zrotation Xrotation Yrotation
                        JOINT RightWrist
                        {
                            OFFSET -28.869000   0.000016  -0.000079
                            CHANNELS 3 Zrotation Xrotation Yrotation
                            JOINT RightFinger0
                            {
                                OFFSET  -2.044660  -2.323490   3.252850
                                CHANNELS 3 Zrotation Xrotation Yrotation
                                JOINT RightFinger01
                                {
                                    OFFSET  -3.088140   0.000000   0.000000
                                    CHANNELS 3 Zrotation Xrotation Yrotation
                                    JOINT RightFinger02
                                    {
                                        OFFSET  -2.639460   0.000000   0.000000
                                        CHANNELS 3 Zrotation Xrotation Yrotation
                                        End Site
                                        {
                                            OFFSET  -2.582190   0.000000   0.000000
                                        }
                                    }
                                }
                            }
                            JOINT RightFinger1
                            {
                                OFFSET  -8.364480   0.000000   3.252850
                                CHANNELS 3 Zrotation Xrotation Yrotation
                                JOINT RightFinger11
                                {
                                    OFFSET  -4.646930   0.000000   0.000000
                                    CHANNELS 3 Zrotation Xrotation Yrotation
                                    JOINT RightFinger12
                                    {
                                        OFFSET  -2.323470   0.000000   0.000000
                                        CHANNELS 3 Zrotation Xrotation Yrotation
                                        End Site
                                        {
                                            OFFSET  -2.273050   0.000000   0.000000
                                        }
                                    }
                                }
                            }
                            JOINT RightFinger2
                            {
                                OFFSET  -8.364480   0.000000   1.078090
                                CHANNELS 3 Zrotation Xrotation Yrotation
                                JOINT RightFinger21
                                {
                                    OFFSET  -5.111620   0.000000   0.000000
                                    CHANNELS 3 Zrotation Xrotation Yrotation
                                    JOINT RightFinger22
                                    {
                                        OFFSET  -2.788160   0.000000   0.000000
                                        CHANNELS 3 Zrotation Xrotation Yrotation
                                        End Site
                                        {
                                            OFFSET  -2.727660   0.000000   0.000000
                                        }
                                    }
                                }
                            }
                            JOINT RightFinger3
                            {
                                OFFSET  -7.899780   0.000000  -1.078090
                                CHANNELS 3 Zrotation Xrotation Yrotation
                                JOINT RightFinger31
                                {
                                    OFFSET  -4.646930   0.000000   0.000000
                                    CHANNELS 3 Zrotation Xrotation Yrotation
                                    JOINT RightFinger32
                                    {
                                        OFFSET  -2.323470   0.000000   0.000000
                                        CHANNELS 3 Zrotation Xrotation Yrotation
                                        End Site
                                        {
                                            OFFSET  -2.273050   0.000000   0.000000
                                        }
                                    }
                                }
                            }
                            JOINT RightFinger4
                            {
                                OFFSET  -7.435090   0.000000  -3.252850
                                CHANNELS 3 Zrotation Xrotation Yrotation
                                JOINT RightFinger41
                                {
                                    OFFSET  -3.717550   0.000000   0.000000
                                    CHANNELS 3 Zrotation Xrotation Yrotation
                                    JOINT RightFinger42
                                    {
                                        OFFSET  -1.858770   0.000000   0.000000
                                        CHANNELS 3 Zrotation Xrotation Yrotation
                                        End Site
                                        {
                                            OFFSET  -1.818440   0.000000   0.000000
                                        }
                                    }
                                }
                            }
                        }
                    }
                }
            }
        }
    }
    JOINT LeftHip
    {
        OFFSET   9.783040   0.000000   0.000000
        CHANNELS 3 Zrotation Xrotation Yrotation
        JOINT LeftKnee
        {
            OFFSET   0.000032 -41.789100  -0.002222
            CHANNELS 3 Zrotation Xrotation Yrotation
            JOINT LeftAnkle
            {
                OFFSET   0.000087 -41.133200  -0.000135
                CHANNELS 3 Zrotation Xrotation Yrotation
                JOINT LeftToe
                {
                    OFFSET   0.000000  -6.358960  14.674500
                    CHANNELS 3 Zrotation Xrotation Yrotation
                    End Site
                    {
                        OFFSET   0.000000   0.000000   3.913200
                    }
                }
            }
        }
    }
    JOINT RightHip
    {
        OFFSET  -9.783040   0.000000   0.000000
        CHANNELS 3 Zrotation Xrotation Yrotation
        JOINT RightKnee
        {
            OFFSET   0.000047 -41.789100  -0.000896
            CHANNELS 3 Zrotation Xrotation Yrotation
            JOINT RightAnkle
            {
                OFFSET  -0.000117 -41.133300  -0.000248
                CHANNELS 3 Zrotation Xrotation Yrotation
                JOINT RightToe
                {
                    OFFSET   0.000000  -6.358970  14.674500
                    CHANNELS 3 Zrotation Xrotation Yrotation
                    End Site
                    {
                        OFFSET   0.000000   0.000000   3.913200
                    }
                }
            }
        }
    }
}
MOTION
Frames: 4
Frame Time:   0.016667
 -5.727280  88.999500   0.199245   0.077239 -20.012400   7.133520   3.828770  11.341600   2.162710   7.436200  22.798400   3.641450  -0.026790  -4.388860   0.000231  -0.046270  -8.899880  -6.331060 -13.874000  -8.825950  -3.459500 -69.370900  20.587400  -6.281130  -2.156990 -11.019900  -8.290530   3.890090  -9.612580   7.752810  42.738500  29.231200 -62.501900 -21.735400   0.006883   0.002811  -5.867670  -0.001602   0.000974 -32.271600   6.220520  -9.735920 -26.837600   0.000677   0.004284 -18.786300   0.000404   0.003414 -28.513500   1.283360  -2.360900 -36.613000   0.001250   0.000588 -24.384300   0.000345   0.002445 -28.515700  -1.488940   2.737970 -36.752100  -0.000998  -0.000519 -24.476900  -0.001048  -0.002417 -31.924400  -1.649280   2.644490 -47.943900   0.005921  -0.002113 -31.930700   0.000147  -0.001096   5.809040 -13.522600  15.851500  45.181300  -9.280740  68.961300 -12.804200 -21.657900   2.315980   8.452960 -68.676400  40.023700 -50.783900  34.999800  69.875500  -2.916610  -0.001929  -0.000000  -6.458320  -0.007161   0.000290  16.768000   5.120280  16.501300  14.326900   0.004495  -0.004363  10.028900   0.002298  -0.004609  16.576500   4.500600  14.768000  17.160100   0.001022  -0.000605  11.428700   0.003294  -0.000877  16.981400   2.831990   9.190090  17.209100   0.004670  -0.003333  11.461200   0.002815  -0.000317  15.466900   1.732260   6.250050  23.339800   0.001738  -0.001516  15.544300  -0.000773   0.000668   3.640540  13.273100   0.521519   6.290680  12.910900   4.183650  -5.622490  -4.971050  -1.880020  -0.000000   0.000000  -0.000000   6.416580  14.587900  -4.938570   0.700986   8.003530 -11.050400  -2.920450  -4.745760  -3.256740   0.000000   0.000000  -0.000000
 -5.857310  88.983300   0.196855   0.128132 -20.069700   7.284310   3.826460  11.344400   2.163390   7.431230  22.804100   3.642960  -0.016582  -4.373970   0.000115  -0.033259  -8.869480  -6.265620 -13.877800  -8.817080  -3.458920 -69.366900  20.522600  -6.238080  -2.139100 -11.005100  -8.210760   3.861760  -9.524710   7.747380  42.746400  29.217900 -62.479500 -21.715900   0.006880   0.002801  -5.857950  -0.001607   0.001005 -32.248700   6.223940  -9.750260 -26.820100   0.000649   0.004247 -18.774000   0.000388   0.003407 -28.512700   1.292550  -2.378110 -36.572800   0.001227   0.000545 -24.357500   0.000348   0.002442 -28.511900  -1.474760   2.712460 -36.701500  -0.001127  -0.000613 -24.443200  -0.001095  -0.002485 -31.901800  -1.632630   2.620510 -47.908500   0.005925  -0.002150 -31.907100   0.000147  -0.001138   5.779350 -13.493200  15.821300  45.369400  -9.265860  68.979800 -12.806000 -21.582600   2.386610   8.116610 -68.786900  39.685800 -50.760800  34.943200  69.782700  -2.756930  -0.002006  -0.000000  -6.378470  -0.007167   0.000346  16.819400   5.113850  16.429400  14.365700   0.004715  -0.004358  10.056000   0.002451  -0.004608  16.613400   4.507230  14.755600  17.197300   0.001066  -0.000599  11.453400   0.003526  -0.000823  17.026200   2.816380   9.115280  17.250800   0.004993  -0.003309  11.489000   0.003027  -0.000261  15.474100   1.705470   6.136220  23.348300   0.001819  -0.001428  15.549900  -0.000703   0.000647   3.706200  13.197400   0.487401   6.342540  13.101900   4.098440  -5.700660  -5.005430  -1.956960   0.000000   0.000000   0.000000   6.507470  14.646900  -4.937760   0.733284   7.986810 -11.136800  -2.981780  -4.773490  -3.344470   0.000000   0.000000   0.000000
 -5.985530  88.967100   0.195687   0.181981 -20.111300   7.416410   3.823000  11.342400   2.155830   7.425600  22.799600   3.628060  -0.008104  -4.348740   0.000034  -0.018159  -8.818360  -6.172810 -13.891700  -8.800230  -3.443080 -69.368800  20.433400  -6.204850  -2.114750 -10.986200  -8.139590   3.874120  -9.471330   7.746590  42.734200  29.192800 -62.464600 -21.700500   0.006884   0.002778  -5.850280  -0.001607   0.001044 -32.247800   6.235140  -9.768750 -26.821300   0.000616   0.004211 -18.774900   0.000374   0.003394 -28.512700   1.303510  -2.398290 -36.575500   0.001205   0.000502 -24.359300   0.000352   0.002443 -28.512400  -1.456770   2.679450 -36.701800  -0.001259  -0.000707 -24.443400  -0.001142  -0.002555 -31.904300  -1.612600   2.588710 -47.909900   0.005928  -0.002182 -31.908100   0.000148  -0.001182   5.746610 -13.463800  15.813700  45.508100  -9.235830  68.997000 -12.790100 -21.506800   2.430750   8.033230 -68.790900  39.573200 -50.746900  34.940800  69.797000  -2.743740  -0.002097  -0.000083  -6.371870  -0.007172   0.000400  16.849000   5.108290  16.374600  14.388100   0.004933  -0.004352  10.071600   0.002599  -0.004607  16.610600   4.506730  14.756500  17.194500   0.001106  -0.000599  11.451500   0.003755  -0.000771  17.075300   2.808620   9.063350  17.297900   0.005322  -0.003276  11.520400   0.003238  -0.000211  15.554200   1.706310   6.094670  23.472700   0.001899  -0.001346  15.632800  -0.000641   0.000632   3.761460  13.132500   0.435045   6.384810  13.270200   4.027000  -5.777900  -5.045470  -2.005920  -0.000000   0.000000   0.000000   6.590590  14.695100  -4.954500   0.761517   7.960780 -11.205600  -3.052140  -4.798430  -3.415040  -0.000000   0.000000  -0.000000
 -6.109930  88.952300   0.195456   0.229910 -20.142700   7.530850   3.819590  11.337100   2.145250   7.420960  22.788100   3.607510   0.000696  -4.314980  -0.000000  -0.002190  -8.749880  -6.077070 -13.908700  -8.782170  -3.427990 -69.371500  20.335700  -6.173360  -2.087890 -10.965000  -8.078500   3.895790  -9.450960   7.746560  42.728300  29.166400 -62.468300 -21.687200   0.006887   0.002762  -5.843610  -0.001607   0.001082 -32.252600   6.250420  -9.789280 -26.826900   0.000584   0.004175 -18.778800   0.000361   0.003379 -28.513100   1.314410  -2.418210 -36.588100   0.001183   0.000459 -24.367700   0.000357   0.002443 -28.513600  -1.439660   2.647820 -36.704100  -0.001392  -0.000804 -24.445000  -0.001189  -0.002624 -31.911100  -1.594090   2.557880 -47.920000   0.005931  -0.002213 -31.914700   0.000149  -0.001225   5.723530 -13.438100  15.811200  45.623900  -9.197780  69.000000 -12.776000 -21.442800   2.468950   7.983740 -68.765400  39.481200 -50.731500  34.941700  69.808700  -2.741850  -0.002191  -0.000166  -6.370920  -0.007175   0.000451  16.865600   5.096590  16.332300  14.397900   0.005149  -0.004349  10.078500   0.002746  -0.004606  16.591200   4.503210  14.763100  17.174900   0.001145  -0.000600  11.438500   0.003982  -0.000721  17.105600   2.805520   9.036770  17.327300   0.005652  -0.003243  11.540000   0.003450  -0.000163  15.649300   1.711350   6.084200  23.610300   0.001976  -0.001266  15.724500  -0.000577   0.000616   3.810620  13.073500   0.383751   6.423710  13.420000   3.960630  -5.850430  -5.084280  -2.039310   0.000000   0.000000   0.000000   6.667720  14.737900  -4.973870   0.788586   7.928650 -11.264900  -3.118170  -4.823570  -3.474120   0.000000   0.000000   0.000000
